solid CATIA STL
  facet normal  9.749278e-001 -2.225215e-001  0.000000e+000
    outer loop
      vertex  4.500000e+002  3.000000e+002  5.550000e+002
      vertex  4.450484e+002  2.783058e+002  8.050000e+002
      vertex  4.450484e+002  2.783058e+002  5.550000e+002
    endloop
  endfacet
  facet normal  3.307092e-001 -9.437327e-001  1.191038e-004
    outer loop
      vertex  4.219572e+002  2.550792e+002  7.930468e+002
      vertex  4.108958e+002  2.512016e+002  7.824993e+002
      vertex  4.111260e+002  2.512536e+002  5.550000e+002
    endloop
  endfacet
  facet normal -1.852982e-001 -9.826822e-001  3.303548e-004
    outer loop
      vertex  3.940235e+002  2.503585e+002  7.807249e+002
      vertex  3.874751e+002  2.515941e+002  7.833638e+002
      vertex  3.888740e+002  2.512536e+002  5.550000e+002
    endloop
  endfacet
  facet normal  5.633168e-001 -8.262371e-001  2.562264e-003
    outer loop
      vertex  4.250000e+002  2.566987e+002  8.050000e+002
      vertex  4.311745e+002  2.609084e+002  8.050000e+002
      vertex  4.249565e+002  2.566736e+002  8.064752e+002
    endloop
  endfacet
  facet normal  3.317254e-001 -9.433742e-001  1.821978e-003
    outer loop
      vertex  4.111260e+002  2.512536e+002  9.050000e+002
      vertex  4.125249e+002  2.515941e+002  8.266362e+002
      vertex  4.203851e+002  2.543442e+002  8.194724e+002
    endloop
  endfacet
  facet normal -1.420096e-001 -9.898653e-001  2.420287e-004
    outer loop
      vertex  3.888740e+002  2.512536e+002  9.050000e+002
      vertex  3.891042e+002  2.512016e+002  8.275007e+002
      vertex  3.967443e+002  2.501061e+002  8.297871e+002
    endloop
  endfacet
  facet normal -3.305140e-001 -9.438010e-001 -3.490035e-004
    outer loop
      vertex  3.780428e+002  2.550792e+002  8.169532e+002
      vertex  3.891042e+002  2.512016e+002  8.275007e+002
      vertex  3.888740e+002  2.512536e+002  9.050000e+002
    endloop
  endfacet
  facet normal -4.338828e-001 -9.009683e-001 -1.314230e-003
    outer loop
      vertex  3.688255e+002  2.609084e+002  5.550000e+002
      vertex  3.888740e+002  2.512536e+002  5.550000e+002
      vertex  3.874751e+002  2.515941e+002  7.833638e+002
    endloop
  endfacet
  facet normal -3.388980e-001 -9.407623e-001 -1.069435e-002
    outer loop
      vertex  3.688255e+002  2.609084e+002  5.550000e+002
      vertex  3.874751e+002  2.515941e+002  7.833638e+002
      vertex  3.796149e+002  2.543442e+002  7.905276e+002
    endloop
  endfacet
  facet normal -4.620098e-001 -8.868678e-001 -3.552607e-003
    outer loop
      vertex  3.688255e+002  2.609084e+002  5.550000e+002
      vertex  3.796149e+002  2.543442e+002  7.905276e+002
      vertex  3.750435e+002  2.566736e+002  8.035248e+002
    endloop
  endfacet
  facet normal -5.297476e-001 -8.481545e-001 -1.198152e-003
    outer loop
      vertex  3.688255e+002  2.609084e+002  5.550000e+002
      vertex  3.750435e+002  2.566736e+002  8.035248e+002
      vertex  3.750000e+002  2.566987e+002  8.050000e+002
    endloop
  endfacet
  facet normal -5.633186e-001 -8.262398e-001  0.000000e+000
    outer loop
      vertex  3.688255e+002  2.609084e+002  5.550000e+002
      vertex  3.750000e+002  2.566987e+002  8.050000e+002
      vertex  3.688255e+002  2.609084e+002  8.050000e+002
    endloop
  endfacet
  facet normal -7.818322e-001 -6.234889e-001  -0.000000e+000
    outer loop
      vertex  3.688255e+002  2.609084e+002  5.550000e+002
      vertex  3.688255e+002  2.609084e+002  8.050000e+002
      vertex  3.549516e+002  2.783058e+002  8.050000e+002
    endloop
  endfacet
  facet normal -7.818322e-001 -6.234889e-001  -0.000000e+000
    outer loop
      vertex  3.688255e+002  2.609084e+002  5.550000e+002
      vertex  3.549516e+002  2.783058e+002  8.050000e+002
      vertex  3.549516e+002  2.783058e+002  5.550000e+002
    endloop
  endfacet
  facet normal  9.749278e-001 -2.225215e-001  0.000000e+000
    outer loop
      vertex  4.500000e+002  3.000000e+002  5.550000e+002
      vertex  4.500000e+002  3.000000e+002  9.050000e+002
      vertex  4.450484e+002  2.783058e+002  8.050000e+002
    endloop
  endfacet
  facet normal  9.749277e-001 -2.225215e-001  0.000000e+000
    outer loop
      vertex  4.450484e+002  2.783058e+002  8.050000e+002
      vertex  4.500000e+002  3.000000e+002  9.050000e+002
      vertex  4.450484e+002  2.783058e+002  9.050000e+002
    endloop
  endfacet
  facet normal  7.818322e-001 -6.234890e-001  0.000000e+000
    outer loop
      vertex  4.450484e+002  2.783058e+002  8.050000e+002
      vertex  4.450484e+002  2.783058e+002  9.050000e+002
      vertex  4.311745e+002  2.609084e+002  8.050000e+002
    endloop
  endfacet
  facet normal  7.818322e-001 -6.234890e-001  0.000000e+000
    outer loop
      vertex  4.311745e+002  2.609084e+002  8.050000e+002
      vertex  4.450484e+002  2.783058e+002  9.050000e+002
      vertex  4.311745e+002  2.609084e+002  9.050000e+002
    endloop
  endfacet
  facet normal  5.629033e-001 -8.265227e-001  0.000000e+000
    outer loop
      vertex  4.311745e+002  2.609084e+002  8.050000e+002
      vertex  4.311745e+002  2.609084e+002  9.050000e+002
      vertex  4.249565e+002  2.566736e+002  8.064752e+002
    endloop
  endfacet
  facet normal  4.338553e-001 -9.009112e-001  1.134179e-002
    outer loop
      vertex  4.249565e+002  2.566736e+002  8.064752e+002
      vertex  4.311745e+002  2.609084e+002  9.050000e+002
      vertex  4.111260e+002  2.512536e+002  9.050000e+002
    endloop
  endfacet
  facet normal  5.065406e-001 -8.618906e-001  2.369158e-002
    outer loop
      vertex  4.249565e+002  2.566736e+002  8.064752e+002
      vertex  4.111260e+002  2.512536e+002  9.050000e+002
      vertex  4.203851e+002  2.543442e+002  8.194724e+002
    endloop
  endfacet
  facet normal -9.749278e-001 -2.225215e-001  0.000000e+000
    outer loop
      vertex  3.500000e+002  3.000000e+002  5.550000e+002
      vertex  3.549516e+002  2.783058e+002  5.550000e+002
      vertex  3.500000e+002  3.000000e+002  9.050000e+002
    endloop
  endfacet
  facet normal -9.749278e-001 -2.225215e-001  0.000000e+000
    outer loop
      vertex  3.500000e+002  3.000000e+002  9.050000e+002
      vertex  3.549516e+002  2.783058e+002  5.550000e+002
      vertex  3.549516e+002  2.783058e+002  8.050000e+002
    endloop
  endfacet
  facet normal -9.749277e-001 -2.225215e-001  0.000000e+000
    outer loop
      vertex  3.500000e+002  3.000000e+002  9.050000e+002
      vertex  3.549516e+002  2.783058e+002  8.050000e+002
      vertex  3.549516e+002  2.783058e+002  9.050000e+002
    endloop
  endfacet
  facet normal  7.818322e-001 -6.234889e-001  0.000000e+000
    outer loop
      vertex  4.450484e+002  2.783058e+002  5.550000e+002
      vertex  4.450484e+002  2.783058e+002  8.050000e+002
      vertex  4.311745e+002  2.609084e+002  5.550000e+002
    endloop
  endfacet
  facet normal  7.818322e-001 -6.234889e-001  0.000000e+000
    outer loop
      vertex  4.311745e+002  2.609084e+002  5.550000e+002
      vertex  4.450484e+002  2.783058e+002  8.050000e+002
      vertex  4.311745e+002  2.609084e+002  8.050000e+002
    endloop
  endfacet
  facet normal  4.338832e-001 -9.009691e-001  0.000000e+000
    outer loop
      vertex  4.311745e+002  2.609084e+002  5.550000e+002
      vertex  4.311745e+002  2.609084e+002  8.050000e+002
      vertex  4.111260e+002  2.512536e+002  5.550000e+002
    endloop
  endfacet
  facet normal  5.632690e-001 -8.261671e-001 -1.326475e-002
    outer loop
      vertex  4.111260e+002  2.512536e+002  5.550000e+002
      vertex  4.311745e+002  2.609084e+002  8.050000e+002
      vertex  4.250000e+002  2.566987e+002  8.050000e+002
    endloop
  endfacet
  facet normal  4.959913e-001 -8.682847e-001 -8.613770e-003
    outer loop
      vertex  4.111260e+002  2.512536e+002  5.550000e+002
      vertex  4.250000e+002  2.566987e+002  8.050000e+002
      vertex  4.219572e+002  2.550792e+002  7.930468e+002
    endloop
  endfacet
  facet normal  0.000000e+000 -1.000000e+000 -2.285137e-004
    outer loop
      vertex  4.111260e+002  2.512536e+002  5.550000e+002
      vertex  4.108958e+002  2.512016e+002  7.824993e+002
      vertex  3.888740e+002  2.512536e+002  5.550000e+002
    endloop
  endfacet
  facet normal  1.461371e-001 -9.891600e-001 -1.437201e-002
    outer loop
      vertex  3.888740e+002  2.512536e+002  5.550000e+002
      vertex  4.108958e+002  2.512016e+002  7.824993e+002
      vertex  4.032557e+002  2.501061e+002  7.802129e+002
    endloop
  endfacet
  facet normal -2.750966e-002 -9.996160e-001 -3.336457e-003
    outer loop
      vertex  3.888740e+002  2.512536e+002  5.550000e+002
      vertex  4.032557e+002  2.501061e+002  7.802129e+002
      vertex  3.940235e+002  2.503585e+002  7.807249e+002
    endloop
  endfacet
  facet normal  0.000000e+000 -9.998836e-001  1.525480e-002
    outer loop
      vertex  3.888740e+002  2.512536e+002  9.050000e+002
      vertex  3.967443e+002  2.501061e+002  8.297871e+002
      vertex  4.111260e+002  2.512536e+002  9.050000e+002
    endloop
  endfacet
  facet normal  2.787332e-002 -9.995623e-001  9.920127e-003
    outer loop
      vertex  4.111260e+002  2.512536e+002  9.050000e+002
      vertex  3.967443e+002  2.501061e+002  8.297871e+002
      vertex  4.059765e+002  2.503585e+002  8.292751e+002
    endloop
  endfacet
  facet normal  1.850502e-001 -9.827285e-001 -9.673306e-004
    outer loop
      vertex  4.111260e+002  2.512536e+002  9.050000e+002
      vertex  4.059765e+002  2.503585e+002  8.292751e+002
      vertex  4.125249e+002  2.515941e+002  8.266362e+002
    endloop
  endfacet
  facet normal -7.818322e-001 -6.234890e-001  0.000000e+000
    outer loop
      vertex  3.549516e+002  2.783058e+002  9.050000e+002
      vertex  3.549516e+002  2.783058e+002  8.050000e+002
      vertex  3.688255e+002  2.609084e+002  9.050000e+002
    endloop
  endfacet
  facet normal -7.818322e-001 -6.234890e-001  -0.000000e+000
    outer loop
      vertex  3.688255e+002  2.609084e+002  9.050000e+002
      vertex  3.549516e+002  2.783058e+002  8.050000e+002
      vertex  3.688255e+002  2.609084e+002  8.050000e+002
    endloop
  endfacet
  facet normal -4.338832e-001 -9.009691e-001  0.000000e+000
    outer loop
      vertex  3.688255e+002  2.609084e+002  9.050000e+002
      vertex  3.688255e+002  2.609084e+002  8.050000e+002
      vertex  3.888740e+002  2.512536e+002  9.050000e+002
    endloop
  endfacet
  facet normal -5.630090e-001 -8.257858e-001  3.314656e-002
    outer loop
      vertex  3.888740e+002  2.512536e+002  9.050000e+002
      vertex  3.688255e+002  2.609084e+002  8.050000e+002
      vertex  3.750000e+002  2.566987e+002  8.050000e+002
    endloop
  endfacet
  facet normal -5.729561e-001 -8.188424e-001  3.490469e-002
    outer loop
      vertex  3.888740e+002  2.512536e+002  9.050000e+002
      vertex  3.750000e+002  2.566987e+002  8.050000e+002
      vertex  3.780428e+002  2.550792e+002  8.169532e+002
    endloop
  endfacet
  facet normal -5.877766e-001 -5.498588e-003  8.090046e-001
    outer loop
      vertex  3.797746e+002  1.000000e+002  8.196946e+002
      vertex  3.922746e+002  1.000000e+002  8.287764e+002
      vertex  3.891042e+002  2.512016e+002  8.275007e+002
    endloop
  endfacet
  facet normal  9.510567e-001  0.000000e+000  3.090163e-001
    outer loop
      vertex  4.250000e+002  1.000000e+002  8.050000e+002
      vertex  4.250000e+002  2.566987e+002  8.050000e+002
      vertex  4.202254e+002  1.000000e+002  8.196946e+002
    endloop
  endfacet
  facet normal  9.991942e-001 -2.772338e-002  2.902428e-002
    outer loop
      vertex  4.202254e+002  1.000000e+002  8.196946e+002
      vertex  4.250000e+002  2.566987e+002  8.050000e+002
      vertex  4.249565e+002  2.566736e+002  8.064752e+002
    endloop
  endfacet
  facet normal  9.433784e-001 -4.979838e-004  3.317180e-001
    outer loop
      vertex  4.202254e+002  1.000000e+002  8.196946e+002
      vertex  4.249565e+002  2.566736e+002  8.064752e+002
      vertex  4.203851e+002  2.543442e+002  8.194724e+002
    endloop
  endfacet
  facet normal  5.877854e-001  5.572206e-004  8.090167e-001
    outer loop
      vertex  4.202254e+002  1.000000e+002  8.196946e+002
      vertex  4.203851e+002  2.543442e+002  8.194724e+002
      vertex  4.077254e+002  1.000000e+002  8.287764e+002
    endloop
  endfacet
  facet normal  6.756690e-001 -1.098501e-002  7.371233e-001
    outer loop
      vertex  4.077254e+002  1.000000e+002  8.287764e+002
      vertex  4.203851e+002  2.543442e+002  8.194724e+002
      vertex  4.125249e+002  2.515941e+002  8.266362e+002
    endloop
  endfacet
  facet normal  3.735650e-001  1.268784e-003  9.276031e-001
    outer loop
      vertex  4.077254e+002  1.000000e+002  8.287764e+002
      vertex  4.125249e+002  2.515941e+002  8.266362e+002
      vertex  4.059765e+002  2.503585e+002  8.292751e+002
    endloop
  endfacet
  facet normal  0.000000e+000 -3.316438e-003  9.999946e-001
    outer loop
      vertex  4.077254e+002  1.000000e+002  8.287764e+002
      vertex  4.059765e+002  2.503585e+002  8.292751e+002
      vertex  3.922746e+002  1.000000e+002  8.287764e+002
    endloop
  endfacet
  facet normal  5.560152e-002 -8.378100e-003  9.984179e-001
    outer loop
      vertex  3.922746e+002  1.000000e+002  8.287764e+002
      vertex  4.059765e+002  2.503585e+002  8.292751e+002
      vertex  3.967443e+002  2.501061e+002  8.297871e+002
    endloop
  endfacet
  facet normal -2.864263e-001  2.077897e-003  9.580999e-001
    outer loop
      vertex  3.922746e+002  1.000000e+002  8.287764e+002
      vertex  3.967443e+002  2.501061e+002  8.297871e+002
      vertex  3.891042e+002  2.512016e+002  8.275007e+002
    endloop
  endfacet
  facet normal -9.690944e-001  0.000000e+000  2.466900e-001
    outer loop
      vertex  3.750000e+002  2.566987e+002  8.050000e+002
      vertex  3.750000e+002  1.000000e+002  8.050000e+002
      vertex  3.780428e+002  2.550792e+002  8.169532e+002
    endloop
  endfacet
  facet normal -9.510441e-001 -5.157855e-003  3.090122e-001
    outer loop
      vertex  3.780428e+002  2.550792e+002  8.169532e+002
      vertex  3.750000e+002  1.000000e+002  8.050000e+002
      vertex  3.797746e+002  1.000000e+002  8.196946e+002
    endloop
  endfacet
  facet normal -6.891443e-001  5.113412e-003  7.246060e-001
    outer loop
      vertex  3.780428e+002  2.550792e+002  8.169532e+002
      vertex  3.797746e+002  1.000000e+002  8.196946e+002
      vertex  3.891042e+002  2.512016e+002  8.275007e+002
    endloop
  endfacet
  facet normal  5.877766e-001 -5.498588e-003 -8.090046e-001
    outer loop
      vertex  4.202254e+002  1.000000e+002  7.903054e+002
      vertex  4.077254e+002  1.000000e+002  7.812236e+002
      vertex  4.108958e+002  2.512016e+002  7.824993e+002
    endloop
  endfacet
  facet normal -9.510567e-001  -0.000000e+000 -3.090163e-001
    outer loop
      vertex  3.750000e+002  1.000000e+002  8.050000e+002
      vertex  3.750000e+002  2.566987e+002  8.050000e+002
      vertex  3.797746e+002  1.000000e+002  7.903054e+002
    endloop
  endfacet
  facet normal -9.991942e-001 -2.772338e-002 -2.902428e-002
    outer loop
      vertex  3.797746e+002  1.000000e+002  7.903054e+002
      vertex  3.750000e+002  2.566987e+002  8.050000e+002
      vertex  3.750435e+002  2.566736e+002  8.035248e+002
    endloop
  endfacet
  facet normal -9.433784e-001 -4.979838e-004 -3.317180e-001
    outer loop
      vertex  3.797746e+002  1.000000e+002  7.903054e+002
      vertex  3.750435e+002  2.566736e+002  8.035248e+002
      vertex  3.796149e+002  2.543442e+002  7.905276e+002
    endloop
  endfacet
  facet normal -5.877854e-001  5.572206e-004 -8.090167e-001
    outer loop
      vertex  3.797746e+002  1.000000e+002  7.903054e+002
      vertex  3.796149e+002  2.543442e+002  7.905276e+002
      vertex  3.922746e+002  1.000000e+002  7.812236e+002
    endloop
  endfacet
  facet normal -6.756690e-001 -1.098501e-002 -7.371233e-001
    outer loop
      vertex  3.922746e+002  1.000000e+002  7.812236e+002
      vertex  3.796149e+002  2.543442e+002  7.905276e+002
      vertex  3.874751e+002  2.515941e+002  7.833638e+002
    endloop
  endfacet
  facet normal -3.735650e-001  1.268784e-003 -9.276031e-001
    outer loop
      vertex  3.922746e+002  1.000000e+002  7.812236e+002
      vertex  3.874751e+002  2.515941e+002  7.833638e+002
      vertex  3.940235e+002  2.503585e+002  7.807249e+002
    endloop
  endfacet
  facet normal  0.000000e+000 -3.316438e-003 -9.999946e-001
    outer loop
      vertex  3.922746e+002  1.000000e+002  7.812236e+002
      vertex  3.940235e+002  2.503585e+002  7.807249e+002
      vertex  4.077254e+002  1.000000e+002  7.812236e+002
    endloop
  endfacet
  facet normal -5.560152e-002 -8.378100e-003 -9.984179e-001
    outer loop
      vertex  4.077254e+002  1.000000e+002  7.812236e+002
      vertex  3.940235e+002  2.503585e+002  7.807249e+002
      vertex  4.032557e+002  2.501061e+002  7.802129e+002
    endloop
  endfacet
  facet normal  2.864263e-001  2.077897e-003 -9.580999e-001
    outer loop
      vertex  4.077254e+002  1.000000e+002  7.812236e+002
      vertex  4.032557e+002  2.501061e+002  7.802129e+002
      vertex  4.108958e+002  2.512016e+002  7.824993e+002
    endloop
  endfacet
  facet normal  9.690944e-001  0.000000e+000 -2.466900e-001
    outer loop
      vertex  4.250000e+002  2.566987e+002  8.050000e+002
      vertex  4.250000e+002  1.000000e+002  8.050000e+002
      vertex  4.219572e+002  2.550792e+002  7.930468e+002
    endloop
  endfacet
  facet normal  9.510441e-001 -5.157855e-003 -3.090122e-001
    outer loop
      vertex  4.219572e+002  2.550792e+002  7.930468e+002
      vertex  4.250000e+002  1.000000e+002  8.050000e+002
      vertex  4.202254e+002  1.000000e+002  7.903054e+002
    endloop
  endfacet
  facet normal  6.891443e-001  5.113412e-003 -7.246060e-001
    outer loop
      vertex  4.219572e+002  2.550792e+002  7.930468e+002
      vertex  4.202254e+002  1.000000e+002  7.903054e+002
      vertex  4.108958e+002  2.512016e+002  7.824993e+002
    endloop
  endfacet
  facet normal  -0.000000e+000 -1.000000e+000  0.000000e+000
    outer loop
      vertex  3.750000e+002  1.000000e+002  8.050000e+002
      vertex  4.202254e+002  1.000000e+002  8.196946e+002
      vertex  3.797746e+002  1.000000e+002  8.196946e+002
    endloop
  endfacet
  facet normal  0.000000e+000 -1.000000e+000  0.000000e+000
    outer loop
      vertex  3.797746e+002  1.000000e+002  8.196946e+002
      vertex  4.202254e+002  1.000000e+002  8.196946e+002
      vertex  4.077254e+002  1.000000e+002  8.287764e+002
    endloop
  endfacet
  facet normal  -0.000000e+000 -1.000000e+000  0.000000e+000
    outer loop
      vertex  3.797746e+002  1.000000e+002  8.196946e+002
      vertex  4.077254e+002  1.000000e+002  8.287764e+002
      vertex  3.922746e+002  1.000000e+002  8.287764e+002
    endloop
  endfacet
  facet normal  0.000000e+000 -1.000000e+000  0.000000e+000
    outer loop
      vertex  4.202254e+002  1.000000e+002  8.196946e+002
      vertex  3.750000e+002  1.000000e+002  8.050000e+002
      vertex  4.250000e+002  1.000000e+002  8.050000e+002
    endloop
  endfacet
  facet normal  -0.000000e+000 -1.000000e+000  0.000000e+000
    outer loop
      vertex  4.250000e+002  1.000000e+002  8.050000e+002
      vertex  3.750000e+002  1.000000e+002  8.050000e+002
      vertex  3.797746e+002  1.000000e+002  7.903054e+002
    endloop
  endfacet
  facet normal  0.000000e+000 -1.000000e+000  0.000000e+000
    outer loop
      vertex  4.250000e+002  1.000000e+002  8.050000e+002
      vertex  3.797746e+002  1.000000e+002  7.903054e+002
      vertex  4.202254e+002  1.000000e+002  7.903054e+002
    endloop
  endfacet
  facet normal  -0.000000e+000 -1.000000e+000  0.000000e+000
    outer loop
      vertex  4.202254e+002  1.000000e+002  7.903054e+002
      vertex  3.797746e+002  1.000000e+002  7.903054e+002
      vertex  3.922746e+002  1.000000e+002  7.812236e+002
    endloop
  endfacet
  facet normal  0.000000e+000 -1.000000e+000  0.000000e+000
    outer loop
      vertex  4.202254e+002  1.000000e+002  7.903054e+002
      vertex  3.922746e+002  1.000000e+002  7.812236e+002
      vertex  4.077254e+002  1.000000e+002  7.812236e+002
    endloop
  endfacet
  facet normal  -0.000000e+000  0.000000e+000  1.000000e+000
    outer loop
      vertex  8.000000e+002  5.000000e+002  5.550000e+002
      vertex  4.111260e+002  3.487464e+002  5.550000e+002
      vertex  4.311745e+002  3.390916e+002  5.550000e+002
    endloop
  endfacet
  facet normal  0.000000e+000  0.000000e+000  1.000000e+000
    outer loop
      vertex  0.000000e+000  5.000000e+002  5.550000e+002
      vertex  0.000000e+000  0.000000e+000  5.550000e+002
      vertex  3.688255e+002  3.390916e+002  5.550000e+002
    endloop
  endfacet
  facet normal  0.000000e+000  -0.000000e+000  1.000000e+000
    outer loop
      vertex  0.000000e+000  5.000000e+002  5.550000e+002
      vertex  3.688255e+002  3.390916e+002  5.550000e+002
      vertex  3.888740e+002  3.487464e+002  5.550000e+002
    endloop
  endfacet
  facet normal  0.000000e+000  -0.000000e+000  1.000000e+000
    outer loop
      vertex  0.000000e+000  5.000000e+002  5.550000e+002
      vertex  3.888740e+002  3.487464e+002  5.550000e+002
      vertex  4.111260e+002  3.487464e+002  5.550000e+002
    endloop
  endfacet
  facet normal  0.000000e+000  -0.000000e+000  9.999999e-001
    outer loop
      vertex  0.000000e+000  5.000000e+002  5.550000e+002
      vertex  4.111260e+002  3.487464e+002  5.550000e+002
      vertex  8.000000e+002  5.000000e+002  5.550000e+002
    endloop
  endfacet
  facet normal  0.000000e+000  0.000000e+000  1.000000e+000
    outer loop
      vertex  0.000000e+000  0.000000e+000  5.550000e+002
      vertex  8.000000e+002  0.000000e+000  5.550000e+002
      vertex  4.111260e+002  2.512536e+002  5.550000e+002
    endloop
  endfacet
  facet normal  0.000000e+000  0.000000e+000  1.000000e+000
    outer loop
      vertex  0.000000e+000  0.000000e+000  5.550000e+002
      vertex  4.111260e+002  2.512536e+002  5.550000e+002
      vertex  3.888740e+002  2.512536e+002  5.550000e+002
    endloop
  endfacet
  facet normal  0.000000e+000  0.000000e+000  1.000000e+000
    outer loop
      vertex  0.000000e+000  0.000000e+000  5.550000e+002
      vertex  3.888740e+002  2.512536e+002  5.550000e+002
      vertex  3.688255e+002  2.609084e+002  5.550000e+002
    endloop
  endfacet
  facet normal  0.000000e+000  0.000000e+000  1.000000e+000
    outer loop
      vertex  0.000000e+000  0.000000e+000  5.550000e+002
      vertex  3.688255e+002  2.609084e+002  5.550000e+002
      vertex  3.549516e+002  2.783058e+002  5.550000e+002
    endloop
  endfacet
  facet normal  0.000000e+000  0.000000e+000  1.000000e+000
    outer loop
      vertex  0.000000e+000  0.000000e+000  5.550000e+002
      vertex  3.549516e+002  2.783058e+002  5.550000e+002
      vertex  3.500000e+002  3.000000e+002  5.550000e+002
    endloop
  endfacet
  facet normal  0.000000e+000  -0.000000e+000  1.000000e+000
    outer loop
      vertex  0.000000e+000  0.000000e+000  5.550000e+002
      vertex  3.500000e+002  3.000000e+002  5.550000e+002
      vertex  3.549516e+002  3.216942e+002  5.550000e+002
    endloop
  endfacet
  facet normal  0.000000e+000  -0.000000e+000  1.000000e+000
    outer loop
      vertex  0.000000e+000  0.000000e+000  5.550000e+002
      vertex  3.549516e+002  3.216942e+002  5.550000e+002
      vertex  3.688255e+002  3.390916e+002  5.550000e+002
    endloop
  endfacet
  facet normal  0.000000e+000  0.000000e+000  1.000000e+000
    outer loop
      vertex  8.000000e+002  0.000000e+000  5.550000e+002
      vertex  8.000000e+002  5.000000e+002  5.550000e+002
      vertex  4.311745e+002  3.390916e+002  5.550000e+002
    endloop
  endfacet
  facet normal  0.000000e+000  0.000000e+000  1.000000e+000
    outer loop
      vertex  8.000000e+002  0.000000e+000  5.550000e+002
      vertex  4.311745e+002  3.390916e+002  5.550000e+002
      vertex  4.450484e+002  3.216942e+002  5.550000e+002
    endloop
  endfacet
  facet normal  0.000000e+000  0.000000e+000  1.000000e+000
    outer loop
      vertex  8.000000e+002  0.000000e+000  5.550000e+002
      vertex  4.450484e+002  3.216942e+002  5.550000e+002
      vertex  4.500000e+002  3.000000e+002  5.550000e+002
    endloop
  endfacet
  facet normal  0.000000e+000  0.000000e+000  1.000000e+000
    outer loop
      vertex  8.000000e+002  0.000000e+000  5.550000e+002
      vertex  4.500000e+002  3.000000e+002  5.550000e+002
      vertex  4.450484e+002  2.783058e+002  5.550000e+002
    endloop
  endfacet
  facet normal  0.000000e+000  0.000000e+000  1.000000e+000
    outer loop
      vertex  8.000000e+002  0.000000e+000  5.550000e+002
      vertex  4.450484e+002  2.783058e+002  5.550000e+002
      vertex  4.311745e+002  2.609084e+002  5.550000e+002
    endloop
  endfacet
  facet normal  0.000000e+000  0.000000e+000  1.000000e+000
    outer loop
      vertex  8.000000e+002  0.000000e+000  5.550000e+002
      vertex  4.311745e+002  2.609084e+002  5.550000e+002
      vertex  4.111260e+002  2.512536e+002  5.550000e+002
    endloop
  endfacet
  facet normal -9.749278e-001  2.225215e-001  0.000000e+000
    outer loop
      vertex  3.500000e+002  3.000000e+002  5.550000e+002
      vertex  3.500000e+002  3.000000e+002  9.050000e+002
      vertex  3.549516e+002  3.216942e+002  5.550000e+002
    endloop
  endfacet
  facet normal -9.749278e-001  2.225215e-001  0.000000e+000
    outer loop
      vertex  3.549516e+002  3.216942e+002  5.550000e+002
      vertex  3.500000e+002  3.000000e+002  9.050000e+002
      vertex  3.549516e+002  3.216942e+002  9.050000e+002
    endloop
  endfacet
  facet normal -7.818322e-001  6.234889e-001  0.000000e+000
    outer loop
      vertex  3.549516e+002  3.216942e+002  5.550000e+002
      vertex  3.549516e+002  3.216942e+002  9.050000e+002
      vertex  3.688255e+002  3.390916e+002  5.550000e+002
    endloop
  endfacet
  facet normal -7.818322e-001  6.234889e-001  0.000000e+000
    outer loop
      vertex  3.688255e+002  3.390916e+002  5.550000e+002
      vertex  3.549516e+002  3.216942e+002  9.050000e+002
      vertex  3.688255e+002  3.390916e+002  9.050000e+002
    endloop
  endfacet
  facet normal -4.338832e-001  9.009691e-001  0.000000e+000
    outer loop
      vertex  3.688255e+002  3.390916e+002  5.550000e+002
      vertex  3.688255e+002  3.390916e+002  9.050000e+002
      vertex  3.888740e+002  3.487464e+002  5.550000e+002
    endloop
  endfacet
  facet normal -4.338832e-001  9.009691e-001  0.000000e+000
    outer loop
      vertex  3.888740e+002  3.487464e+002  5.550000e+002
      vertex  3.688255e+002  3.390916e+002  9.050000e+002
      vertex  3.888740e+002  3.487464e+002  9.050000e+002
    endloop
  endfacet
  facet normal  0.000000e+000  1.000000e+000  0.000000e+000
    outer loop
      vertex  3.888740e+002  3.487464e+002  5.550000e+002
      vertex  3.888740e+002  3.487464e+002  9.050000e+002
      vertex  4.111260e+002  3.487464e+002  5.550000e+002
    endloop
  endfacet
  facet normal  0.000000e+000  1.000000e+000  -0.000000e+000
    outer loop
      vertex  4.111260e+002  3.487464e+002  5.550000e+002
      vertex  3.888740e+002  3.487464e+002  9.050000e+002
      vertex  4.111260e+002  3.487464e+002  9.050000e+002
    endloop
  endfacet
  facet normal  4.338832e-001  9.009691e-001  0.000000e+000
    outer loop
      vertex  4.111260e+002  3.487464e+002  5.550000e+002
      vertex  4.111260e+002  3.487464e+002  9.050000e+002
      vertex  4.311745e+002  3.390916e+002  5.550000e+002
    endloop
  endfacet
  facet normal  4.338832e-001  9.009691e-001  -0.000000e+000
    outer loop
      vertex  4.311745e+002  3.390916e+002  5.550000e+002
      vertex  4.111260e+002  3.487464e+002  9.050000e+002
      vertex  4.311745e+002  3.390916e+002  9.050000e+002
    endloop
  endfacet
  facet normal  7.818322e-001  6.234889e-001  0.000000e+000
    outer loop
      vertex  4.311745e+002  3.390916e+002  5.550000e+002
      vertex  4.311745e+002  3.390916e+002  9.050000e+002
      vertex  4.450484e+002  3.216942e+002  5.550000e+002
    endloop
  endfacet
  facet normal  7.818322e-001  6.234889e-001  -0.000000e+000
    outer loop
      vertex  4.450484e+002  3.216942e+002  5.550000e+002
      vertex  4.311745e+002  3.390916e+002  9.050000e+002
      vertex  4.450484e+002  3.216942e+002  9.050000e+002
    endloop
  endfacet
  facet normal  9.749278e-001  2.225215e-001  0.000000e+000
    outer loop
      vertex  4.450484e+002  3.216942e+002  5.550000e+002
      vertex  4.450484e+002  3.216942e+002  9.050000e+002
      vertex  4.500000e+002  3.000000e+002  5.550000e+002
    endloop
  endfacet
  facet normal  9.749278e-001  2.225215e-001  -0.000000e+000
    outer loop
      vertex  4.500000e+002  3.000000e+002  5.550000e+002
      vertex  4.450484e+002  3.216942e+002  9.050000e+002
      vertex  4.500000e+002  3.000000e+002  9.050000e+002
    endloop
  endfacet
  facet normal  -0.000000e+000  0.000000e+000  1.000000e+000
    outer loop
      vertex  4.111260e+002  3.487464e+002  9.050000e+002
      vertex  3.888740e+002  3.487464e+002  9.050000e+002
      vertex  4.311745e+002  3.390916e+002  9.050000e+002
    endloop
  endfacet
  facet normal  0.000000e+000  0.000000e+000  1.000000e+000
    outer loop
      vertex  4.311745e+002  3.390916e+002  9.050000e+002
      vertex  3.888740e+002  3.487464e+002  9.050000e+002
      vertex  3.688255e+002  3.390916e+002  9.050000e+002
    endloop
  endfacet
  facet normal  -0.000000e+000  0.000000e+000  1.000000e+000
    outer loop
      vertex  4.311745e+002  3.390916e+002  9.050000e+002
      vertex  3.688255e+002  3.390916e+002  9.050000e+002
      vertex  4.450484e+002  3.216942e+002  9.050000e+002
    endloop
  endfacet
  facet normal  0.000000e+000  0.000000e+000  1.000000e+000
    outer loop
      vertex  4.450484e+002  3.216942e+002  9.050000e+002
      vertex  3.688255e+002  3.390916e+002  9.050000e+002
      vertex  3.549516e+002  3.216942e+002  9.050000e+002
    endloop
  endfacet
  facet normal  -0.000000e+000  0.000000e+000  1.000000e+000
    outer loop
      vertex  4.450484e+002  3.216942e+002  9.050000e+002
      vertex  3.549516e+002  3.216942e+002  9.050000e+002
      vertex  4.500000e+002  3.000000e+002  9.050000e+002
    endloop
  endfacet
  facet normal  0.000000e+000  0.000000e+000  1.000000e+000
    outer loop
      vertex  4.500000e+002  3.000000e+002  9.050000e+002
      vertex  3.549516e+002  3.216942e+002  9.050000e+002
      vertex  3.500000e+002  3.000000e+002  9.050000e+002
    endloop
  endfacet
  facet normal  -0.000000e+000  0.000000e+000  1.000000e+000
    outer loop
      vertex  4.500000e+002  3.000000e+002  9.050000e+002
      vertex  3.500000e+002  3.000000e+002  9.050000e+002
      vertex  4.450484e+002  2.783058e+002  9.050000e+002
    endloop
  endfacet
  facet normal  0.000000e+000  0.000000e+000  1.000000e+000
    outer loop
      vertex  4.450484e+002  2.783058e+002  9.050000e+002
      vertex  3.500000e+002  3.000000e+002  9.050000e+002
      vertex  3.549516e+002  2.783058e+002  9.050000e+002
    endloop
  endfacet
  facet normal  -0.000000e+000  0.000000e+000  1.000000e+000
    outer loop
      vertex  4.450484e+002  2.783058e+002  9.050000e+002
      vertex  3.549516e+002  2.783058e+002  9.050000e+002
      vertex  4.311745e+002  2.609084e+002  9.050000e+002
    endloop
  endfacet
  facet normal  0.000000e+000  0.000000e+000  1.000000e+000
    outer loop
      vertex  4.311745e+002  2.609084e+002  9.050000e+002
      vertex  3.549516e+002  2.783058e+002  9.050000e+002
      vertex  3.688255e+002  2.609084e+002  9.050000e+002
    endloop
  endfacet
  facet normal  -0.000000e+000  0.000000e+000  1.000000e+000
    outer loop
      vertex  4.311745e+002  2.609084e+002  9.050000e+002
      vertex  3.688255e+002  2.609084e+002  9.050000e+002
      vertex  4.111260e+002  2.512536e+002  9.050000e+002
    endloop
  endfacet
  facet normal  0.000000e+000  0.000000e+000  1.000000e+000
    outer loop
      vertex  4.111260e+002  2.512536e+002  9.050000e+002
      vertex  3.688255e+002  2.609084e+002  9.050000e+002
      vertex  3.888740e+002  2.512536e+002  9.050000e+002
    endloop
  endfacet
  facet normal  0.000000e+000  0.000000e+000 -1.000000e+000
    outer loop
      vertex  0.000000e+000  0.000000e+000  0.000000e+000
      vertex  0.000000e+000  5.000000e+002  0.000000e+000
      vertex  8.000000e+002  0.000000e+000  0.000000e+000
    endloop
  endfacet
  facet normal  0.000000e+000  0.000000e+000 -1.000000e+000
    outer loop
      vertex  8.000000e+002  0.000000e+000  0.000000e+000
      vertex  0.000000e+000  5.000000e+002  0.000000e+000
      vertex  8.000000e+002  5.000000e+002  0.000000e+000
    endloop
  endfacet
  facet normal -1.000000e+000  0.000000e+000  0.000000e+000
    outer loop
      vertex  0.000000e+000  5.000000e+002  0.000000e+000
      vertex  0.000000e+000  0.000000e+000  0.000000e+000
      vertex  0.000000e+000  5.000000e+002  5.550000e+002
    endloop
  endfacet
  facet normal -1.000000e+000  -0.000000e+000  0.000000e+000
    outer loop
      vertex  0.000000e+000  5.000000e+002  5.550000e+002
      vertex  0.000000e+000  0.000000e+000  0.000000e+000
      vertex  0.000000e+000  0.000000e+000  5.550000e+002
    endloop
  endfacet
  facet normal  0.000000e+000  1.000000e+000  -0.000000e+000
    outer loop
      vertex  8.000000e+002  5.000000e+002  5.550000e+002
      vertex  8.000000e+002  5.000000e+002  0.000000e+000
      vertex  0.000000e+000  5.000000e+002  5.550000e+002
    endloop
  endfacet
  facet normal  0.000000e+000  1.000000e+000  0.000000e+000
    outer loop
      vertex  0.000000e+000  5.000000e+002  5.550000e+002
      vertex  8.000000e+002  5.000000e+002  0.000000e+000
      vertex  0.000000e+000  5.000000e+002  0.000000e+000
    endloop
  endfacet
  facet normal  1.000000e+000  0.000000e+000  0.000000e+000
    outer loop
      vertex  8.000000e+002  0.000000e+000  0.000000e+000
      vertex  8.000000e+002  5.000000e+002  0.000000e+000
      vertex  8.000000e+002  0.000000e+000  5.550000e+002
    endloop
  endfacet
  facet normal  1.000000e+000  -0.000000e+000  0.000000e+000
    outer loop
      vertex  8.000000e+002  0.000000e+000  5.550000e+002
      vertex  8.000000e+002  5.000000e+002  0.000000e+000
      vertex  8.000000e+002  5.000000e+002  5.550000e+002
    endloop
  endfacet
  facet normal  0.000000e+000 -1.000000e+000  0.000000e+000
    outer loop
      vertex  0.000000e+000  0.000000e+000  5.550000e+002
      vertex  0.000000e+000  0.000000e+000  0.000000e+000
      vertex  8.000000e+002  0.000000e+000  5.550000e+002
    endloop
  endfacet
  facet normal  0.000000e+000 -1.000000e+000  -0.000000e+000
    outer loop
      vertex  8.000000e+002  0.000000e+000  5.550000e+002
      vertex  0.000000e+000  0.000000e+000  0.000000e+000
      vertex  8.000000e+002  0.000000e+000  0.000000e+000
    endloop
  endfacet
endsolid CATIA STL
